<svg xmlns="http://www.w3.org/2000/svg" width="1600" height="980" viewBox="0 0 1600 980">
<defs><linearGradient id="bg" x1="0" x2="1" y1="0" y2="1"><stop offset="0" stop-color="#fff7ed"/><stop offset="1" stop-color="#fff"/></linearGradient><filter id="shadow" x="-20%" y="-20%" width="140%" height="140%"><feDropShadow dx="0" dy="20" stdDeviation="18" flood-color="#111827" flood-opacity=".22"/></filter></defs>
<rect width="1600" height="980" fill="url(#bg)"/><circle cx="1340" cy="60" r="330" fill="#fed7aa" opacity=".55"/>
<rect x="80" y="110" width="1040" height="730" rx="36" fill="#f8fafc" stroke="#e5e7eb" filter="url(#shadow)"/>
<rect x="110" y="140" width="150" height="58" rx="14" fill="white" stroke="#e5e7eb"/><text x="132" y="166" font-family="Arial" font-size="22" font-weight="800" fill="#111827">9044</text><text x="132" y="188" font-family="Arial" font-size="11" font-weight="700" fill="#4b5563">SCHOOL-YEAR PASSES</text>
<rect x="280" y="140" width="150" height="58" rx="14" fill="white" stroke="#e5e7eb"/><text x="302" y="166" font-family="Arial" font-size="22" font-weight="800" fill="#111827">33.5%</text><text x="302" y="188" font-family="Arial" font-size="11" font-weight="700" fill="#4b5563">LATE RATE</text>
<rect x="450" y="140" width="150" height="58" rx="14" fill="white" stroke="#e5e7eb"/><text x="472" y="166" font-family="Arial" font-size="22" font-weight="800" fill="#111827">10.3m</text><text x="472" y="188" font-family="Arial" font-size="11" font-weight="700" fill="#4b5563">AVG DURATION</text>
<rect x="620" y="140" width="150" height="58" rx="14" fill="white" stroke="#e5e7eb"/><text x="642" y="166" font-family="Arial" font-size="22" font-weight="800" fill="#111827">10/10</text><text x="642" y="188" font-family="Arial" font-size="11" font-weight="700" fill="#4b5563">ACTIVE / PENDING</text>
<g font-family="Arial" fill="#111827">
<rect x="110" y="230" width="460" height="170" rx="18" fill="white" stroke="#e5e7eb"/><text x="132" y="260" font-size="20" font-weight="800">School Year Pass Trend</text><polyline points="135,355 180,340 230,285 280,275 340,285 390,270 450,275 525,290" fill="none" stroke="#f97316" stroke-width="5"/><text x="135" y="382" font-size="13" fill="#4b5563">Click to expand</text>
<rect x="610" y="230" width="460" height="170" rx="18" fill="white" stroke="#e5e7eb"/><text x="632" y="260" font-size="20" font-weight="800">Late Return Trend</text><polyline points="635,356 680,330 735,280 785,275 835,292 880,274 945,280 1030,293" fill="none" stroke="#f97316" stroke-width="5"/><text x="635" y="382" font-size="13" fill="#4b5563">Click to expand</text>
<rect x="110" y="430" width="460" height="170" rx="18" fill="white" stroke="#e5e7eb"/><text x="132" y="460" font-size="20" font-weight="800">Risk and Intervention Signals</text>
<rect x="132" y="490" width="370" height="10" rx="5" fill="#e5e7eb"/><rect x="132" y="490" width="340" height="10" rx="5" fill="#111827"/><rect x="132" y="520" width="370" height="10" rx="5" fill="#e5e7eb"/><rect x="132" y="520" width="85" height="10" rx="5" fill="#f97316"/><rect x="132" y="550" width="370" height="10" rx="5" fill="#e5e7eb"/><rect x="132" y="550" width="50" height="10" rx="5" fill="#7c2d12"/>
<rect x="610" y="430" width="460" height="170" rx="18" fill="white" stroke="#e5e7eb"/><text x="632" y="460" font-size="20" font-weight="800">Approval Mode Mix</text><rect x="632" y="490" width="370" height="10" rx="5" fill="#e5e7eb"/><rect x="632" y="490" width="330" height="10" rx="5" fill="#111827"/><rect x="632" y="520" width="370" height="10" rx="5" fill="#e5e7eb"/><rect x="632" y="520" width="190" height="10" rx="5" fill="#f97316"/><rect x="632" y="550" width="370" height="10" rx="5" fill="#e5e7eb"/><rect x="632" y="550" width="120" height="10" rx="5" fill="#111827"/>
<rect x="110" y="630" width="460" height="170" rx="18" fill="white" stroke="#e5e7eb"/><text x="132" y="660" font-size="20" font-weight="800">Most Requested Locations</text><rect x="132" y="690" width="370" height="10" rx="5" fill="#e5e7eb"/><rect x="132" y="690" width="340" height="10" rx="5" fill="#f97316"/><rect x="132" y="720" width="370" height="10" rx="5" fill="#e5e7eb"/><rect x="132" y="720" width="290" height="10" rx="5" fill="#111827"/>
<rect x="610" y="630" width="460" height="170" rx="18" fill="white" stroke="#e5e7eb"/><text x="632" y="660" font-size="20" font-weight="800">Average Pass Duration</text><rect x="632" y="690" width="370" height="10" rx="5" fill="#e5e7eb"/><rect x="632" y="690" width="210" height="10" rx="5" fill="#111827"/><rect x="632" y="720" width="370" height="10" rx="5" fill="#e5e7eb"/><rect x="632" y="720" width="310" height="10" rx="5" fill="#f97316"/>
</g>
<g filter="url(#shadow)"><rect x="1110" y="150" width="410" height="136" rx="24" fill="white"/><rect x="1130" y="171" width="50" height="8" rx="4" fill="#f97316"/><text x="1130" y="216" font-family="Arial" font-size="23" font-weight="800" fill="#111827">Campus Visibility</text><text x="1130" y="248" font-family="Arial" font-size="17" fill="#4b5563">See pass volume, late returns, active</text><text x="1130" y="272" font-family="Arial" font-size="17" fill="#4b5563">passes, and pending movement.</text></g>
<g filter="url(#shadow)"><rect x="1080" y="415" width="440" height="140" rx="24" fill="white"/><rect x="1100" y="436" width="50" height="8" rx="4" fill="#f97316"/><text x="1100" y="480" font-family="Arial" font-size="23" font-weight="800" fill="#111827">Intervention Signals</text><text x="1100" y="512" font-family="Arial" font-size="17" fill="#4b5563">Identify repeat usage, possible meet-ups,</text><text x="1100" y="536" font-family="Arial" font-size="17" fill="#4b5563">and students needing follow-up.</text></g>
<g filter="url(#shadow)"><rect x="1035" y="700" width="470" height="125" rx="24" fill="white"/><rect x="1057" y="721" width="50" height="8" rx="4" fill="#f97316"/><text x="1057" y="763" font-family="Arial" font-size="23" font-weight="800" fill="#111827">Trend Reporting</text><text x="1057" y="793" font-family="Arial" font-size="17" fill="#4b5563">Review patterns by hour, day, location, and approval type.</text></g>
</svg>