<svg xmlns="http://www.w3.org/2000/svg" width="1600" height="980" viewBox="0 0 1600 980">
<defs><linearGradient id="bg" x1="0" x2="1" y1="0" y2="1"><stop offset="0" stop-color="#fff7ed"/><stop offset="1" stop-color="#fff"/></linearGradient><filter id="shadow" x="-20%" y="-20%" width="140%" height="140%"><feDropShadow dx="0" dy="20" stdDeviation="18" flood-color="#111827" flood-opacity=".22"/></filter></defs>
<rect width="1600" height="980" fill="url(#bg)"/><circle cx="1340" cy="70" r="330" fill="#fed7aa" opacity=".55"/>
<rect x="80" y="110" width="1050" height="730" rx="36" fill="white" stroke="#e5e7eb" filter="url(#shadow)"/>
<rect x="80" y="110" width="1050" height="62" rx="30" fill="#f8fafc"/><text x="112" y="150" font-family="Arial" font-size="24" font-weight="800" fill="#111827">HallPass DEMO — Public Sales Demo</text>
<rect x="112" y="210" width="780" height="32" fill="#111827"/><text x="126" y="232" font-family="Arial" font-size="15" font-weight="800" fill="white">Setting</text><text x="300" y="232" font-family="Arial" font-size="15" font-weight="800" fill="white">Value</text><text x="470" y="232" font-family="Arial" font-size="15" font-weight="800" fill="white">Notes</text><text x="720" y="232" font-family="Arial" font-size="15" font-weight="800" fill="white">Status</text>
<g font-family="Arial" font-size="15" fill="#111827">
<rect x="112" y="242" width="780" height="34" fill="#fff" stroke="#e5e7eb"/><text x="126" y="265">WeeklyDefaultQuota</text><text x="300" y="265">5</text><text x="470" y="265">Default restroom quota</text><text x="720" y="265">Active</text>
<rect x="112" y="276" width="780" height="34" fill="#f8fafc" stroke="#e5e7eb"/><text x="126" y="299">MaxPassMinutes</text><text x="300" y="299">10</text><text x="470" y="299">Standard return window</text><text x="720" y="299">Active</text>
<rect x="112" y="310" width="780" height="34" fill="#fff" stroke="#e5e7eb"/><text x="126" y="333">EmergencyMode</text><text x="300" y="333">FALSE</text><text x="470" y="333">Lockdown setting</text><text x="720" y="333">Ready</text>
<rect x="112" y="344" width="780" height="34" fill="#f8fafc" stroke="#e5e7eb"/><text x="126" y="367">SchoolName</text><text x="300" y="367">Demo School</text><text x="470" y="367">Campus display name</text><text x="720" y="367">Active</text>
<rect x="112" y="378" width="780" height="34" fill="#fff" stroke="#e5e7eb"/><text x="126" y="401">ThemePrimary</text><text x="300" y="401">#ff8a00</text><text x="470" y="401">Brand color</text><text x="720" y="401">Active</text>
<rect x="112" y="412" width="780" height="34" fill="#f8fafc" stroke="#e5e7eb"/><text x="126" y="435">DemoSchoolID</text><text x="300" y="435">9000</text><text x="470" y="435">Demo profile</text><text x="720" y="435">Active</text>
</g>
<rect x="545" y="500" width="520" height="250" rx="18" fill="#f8fafc" stroke="#e5e7eb"/><text x="570" y="535" font-family="Arial" font-size="24" font-weight="800" fill="#111827">Bell Schedule</text>
<g font-family="Arial" font-size="16" fill="#111827">
<text x="570" y="585" font-weight="800">1st Period</text><text x="730" y="585">8:00 – 8:45</text><rect x="945" y="565" width="82" height="26" rx="13" fill="#dcfce7"/><text x="965" y="584" font-size="13" font-weight="800" fill="#166534">TRUE</text>
<text x="570" y="625" font-weight="800">2nd Period</text><text x="730" y="625">8:50 – 9:35</text><rect x="945" y="605" width="82" height="26" rx="13" fill="#dcfce7"/><text x="965" y="624" font-size="13" font-weight="800" fill="#166534">TRUE</text>
<text x="570" y="665" font-weight="800">Lunch</text><text x="730" y="665">11:00 – 11:45</text><rect x="945" y="645" width="82" height="26" rx="13" fill="#fee2e2"/><text x="960" y="664" font-size="13" font-weight="800" fill="#991b1b">FALSE</text>
<text x="570" y="705" font-weight="800">5th Period</text><text x="730" y="705">2:30 – 3:15</text><rect x="945" y="685" width="82" height="26" rx="13" fill="#dcfce7"/><text x="965" y="704" font-size="13" font-weight="800" fill="#166534">TRUE</text>
</g>
<g font-family="Arial" font-size="12" font-weight="800" fill="#111827"><rect x="112" y="780" width="115" height="28" rx="8" fill="#f3f4f6"/><text x="125" y="799">STAFF</text><rect x="235" y="780" width="130" height="28" rx="8" fill="#f3f4f6"/><text x="248" y="799">LOCATIONS</text><rect x="373" y="780" width="160" height="28" rx="8" fill="#dbeafe"/><text x="386" y="799">BELL_SCHEDULE</text><rect x="541" y="780" width="115" height="28" rx="8" fill="#f3f4f6"/><text x="554" y="799">SETTINGS</text></g>
<g filter="url(#shadow)"><rect x="1100" y="150" width="410" height="136" rx="24" fill="white"/><rect x="1120" y="171" width="50" height="8" rx="4" fill="#f97316"/><text x="1120" y="216" font-family="Arial" font-size="23" font-weight="800" fill="#111827">Google-Based Setup</text><text x="1120" y="248" font-family="Arial" font-size="17" fill="#4b5563">Manage HallPass settings in a familiar</text><text x="1120" y="272" font-family="Arial" font-size="17" fill="#4b5563">Google Sheets environment.</text></g>
<g filter="url(#shadow)"><rect x="1080" y="420" width="440" height="140" rx="24" fill="white"/><rect x="1100" y="441" width="50" height="8" rx="4" fill="#f97316"/><text x="1100" y="485" font-family="Arial" font-size="23" font-weight="800" fill="#111827">Flexible Configuration</text><text x="1100" y="517" font-family="Arial" font-size="17" fill="#4b5563">Adjust pass limits, staff, locations,</text><text x="1100" y="541" font-family="Arial" font-size="17" fill="#4b5563">restrictions, colors, and settings.</text></g>
<g filter="url(#shadow)"><rect x="1030" y="700" width="470" height="125" rx="24" fill="white"/><rect x="1052" y="721" width="50" height="8" rx="4" fill="#f97316"/><text x="1052" y="763" font-family="Arial" font-size="23" font-weight="800" fill="#111827">Schedule-Aware Passes</text><text x="1052" y="793" font-family="Arial" font-size="17" fill="#4b5563">Control pass availability around the real campus bell schedule.</text></g>
</svg>