<svg xmlns="http://www.w3.org/2000/svg" width="1600" height="980" viewBox="0 0 1600 980">
<defs><linearGradient id="bg" x1="0" x2="1" y1="0" y2="1"><stop offset="0" stop-color="#fff7ed"/><stop offset="1" stop-color="#fff"/></linearGradient><filter id="shadow" x="-20%" y="-20%" width="140%" height="140%"><feDropShadow dx="0" dy="20" stdDeviation="18" flood-color="#111827" flood-opacity=".22"/></filter></defs>
<rect width="1600" height="980" fill="url(#bg)"/><circle cx="1340" cy="70" r="330" fill="#fed7aa" opacity=".55"/>
<rect x="90" y="110" width="1000" height="730" rx="36" fill="white" stroke="#e5e7eb" filter="url(#shadow)"/>
<text x="135" y="158" font-family="Arial" font-size="18" font-weight="800" fill="#c2410c">HallPass campus estimate</text><text x="135" y="210" font-family="Arial" font-size="42" font-weight="800" fill="#111827">Get an estimated HallPass quote.</text><text x="135" y="250" font-family="Arial" font-size="18" fill="#4b5563">Confirm your campus size, Google setup, and support preference.</text>
<rect x="135" y="320" width="420" height="430" rx="24" fill="white" stroke="#e5e7eb"/><text x="160" y="365" font-family="Arial" font-size="24" font-weight="800" fill="#111827">Campus details</text>
<g font-family="Arial" font-size="14" font-weight="800" fill="#111827"><text x="160" y="425">Your name</text><text x="335" y="425">School email</text><text x="160" y="505">District</text><text x="335" y="505">Campus</text><text x="160" y="585">Approximate enrollment</text><text x="335" y="585">Campus type</text></g>
<g fill="#f8fafc" stroke="#d1d5db"><rect x="160" y="440" width="160" height="46" rx="12"/><rect x="335" y="440" width="160" height="46" rx="12"/><rect x="160" y="520" width="160" height="46" rx="12"/><rect x="335" y="520" width="160" height="46" rx="12"/><rect x="160" y="600" width="160" height="46" rx="12"/><rect x="335" y="600" width="160" height="46" rx="12"/></g>
<rect x="600" y="320" width="420" height="430" rx="24" fill="white" stroke="#e5e7eb"/><text x="625" y="365" font-family="Arial" font-size="24" font-weight="800" fill="#111827">Your estimate</text>
<rect x="625" y="405" width="360" height="230" rx="22" fill="#111827"/><text x="650" y="440" font-family="Arial" font-size="15" fill="white">Estimated Year 1 total</text><text x="650" y="495" font-family="Arial" font-size="54" font-weight="800" fill="white">$2,175</text>
<g font-family="Arial" font-size="15" fill="white"><line x1="650" y1="535" x2="960" y2="535" stroke="#374151"/><text x="650" y="565">Annual license</text><text x="900" y="565" font-weight="800">$1,875</text><line x1="650" y1="585" x2="960" y2="585" stroke="#374151"/><text x="650" y="615">Setup fee</text><text x="920" y="615" font-weight="800">$300</text></g>
<rect x="625" y="660" width="360" height="70" rx="18" fill="#fff7ed" stroke="#f97316" stroke-width="3"/><text x="650" y="690" font-family="Arial" font-size="18" font-weight="800" fill="#c2410c">What competitors may cost</text><text x="650" y="715" font-family="Arial" font-size="14" fill="#4b5563">Compare against a $2.79/student license.</text>
<g filter="url(#shadow)"><rect x="1100" y="150" width="410" height="128" rx="24" fill="white"/><rect x="1120" y="171" width="50" height="8" rx="4" fill="#f97316"/><text x="1120" y="216" font-family="Arial" font-size="23" font-weight="800" fill="#111827">Instant Estimate</text><text x="1120" y="248" font-family="Arial" font-size="17" fill="#4b5563">Schools can estimate first-year HallPass</text><text x="1120" y="272" font-family="Arial" font-size="17" fill="#4b5563">cost in real time.</text></g>
<g filter="url(#shadow)"><rect x="1080" y="420" width="440" height="140" rx="24" fill="white"/><rect x="1100" y="441" width="50" height="8" rx="4" fill="#f97316"/><text x="1100" y="485" font-family="Arial" font-size="23" font-weight="800" fill="#111827">Transparent Pricing</text><text x="1100" y="517" font-family="Arial" font-size="17" fill="#4b5563">License, setup, API connection, and</text><text x="1100" y="541" font-family="Arial" font-size="17" fill="#4b5563">managed support are clearly separated.</text></g>
<g filter="url(#shadow)"><rect x="1030" y="700" width="470" height="125" rx="24" fill="white"/><rect x="1052" y="721" width="50" height="8" rx="4" fill="#f97316"/><text x="1052" y="763" font-family="Arial" font-size="23" font-weight="800" fill="#111827">Enrollment-Based Quote</text><text x="1052" y="793" font-family="Arial" font-size="17" fill="#4b5563">Pricing adjusts around campus size so the estimate feels predictable.</text></g>
</svg>